<?xml version="1.0" encoding="UTF-8"?>
<svg xmlns="http://www.w3.org/2000/svg" version="1.1" viewBox="0 0 432.9 92.9" fill="#ffffff">
  <!-- Generator: Adobe Illustrator 28.7.1, SVG Export Plug-In . SVG Version: 1.2.0 Build 142)  -->
  <g>
    <g id="Layer_1">
      <g>
        <g>
          <path d="M33.7,92.1c-10,0-18.6-3.3-24.7-9.7C3.2,76.4,0,67.8,0,58.4,0,38.8,13.8,24.6,32.7,24.6c8.6,0,16,2.7,21.9,8.1,6.7,6.5,10.2,16.6,10.3,29.5H16.8s.1,1.2.1,1.2c1.3,10.8,7.4,16.7,17,16.7,5.9,0,10.2-2.2,12.6-6.4h16.8c-4,11.6-14.9,18.5-29.6,18.5ZM32.7,36.2c-8.8,0-14.2,5.4-15.6,15.6l-.2,1.2h30.3s0-1.1,0-1.1c-.7-9.7-6.2-15.7-14.5-15.7Z"/>
          <path d="M119.4,90.9v-38.5c0-8-4.6-13-12-13-8,0-13.6,6.4-13.6,15.5v36s-17.3,0-17.3,0V27.2s16.7,0,16.7,0v10h2s.3-.6.3-.6c3.8-7.4,10.5-11.3,19.3-11.3,6.7,0,12.3,2.2,16.1,6.3,3.8,4.1,5.7,10,5.7,17v42.2s-17.2,0-17.2,0Z"/>
          <path d="M172.7,91.9c-16.7,0-27.1-13-27.1-33.9,0-19.8,11.3-33.7,27.4-33.7,8,0,14,3.3,18.7,10.5l.3.5h1.9s0-1.1,0-1.1c-.2-3.7-.5-9.3-.5-15.1V0s17.3,0,17.3,0v89.8s-16.6,0-16.6,0v-9.6h-1.9s-.3.6-.3.6c-3.5,7.3-10.1,11.2-19.1,11.2ZM178,37c-9.2,0-14.7,7.8-14.7,20.9,0,13.1,5.3,20.5,14.6,20.5,9.7,0,16-8,16-20.4,0-13.2-5.9-21-15.8-21Z"/>
          <rect x="224" y="1" width="17.5" height="89.8"/>
          <path d="M254.6,90.9V27.2s17.3,0,17.3,0v63.7s-17.3,0-17.3,0ZM254.5,15.9V1s17.6,0,17.6,0v14.9s-17.6,0-17.6,0Z"/>
          <path d="M327.9,90.9v-38.5c0-8-4.6-13-12-13-8,0-13.6,6.4-13.6,15.5v36s-17.3,0-17.3,0V27.2s16.7,0,16.7,0v10h2s.3-.6.3-.6c3.8-7.4,10.5-11.3,19.3-11.3,6.7,0,12.3,2.2,16.1,6.3,3.8,4.1,5.7,10,5.7,17v42.2s-17.2,0-17.2,0Z"/>
          <path d="M390.1,92.9c-10,0-18.6-3.3-24.7-9.7-5.8-6-9-14.6-9-24,0-19.6,13.8-33.8,32.7-33.8,8.6,0,16,2.7,21.9,8.1,6.7,6.5,10.2,16.6,10.3,29.5h-48.1s.1,1.2.1,1.2c1.3,10.8,7.4,16.7,17,16.7,5.9,0,10.2-2.2,12.6-6.4h16.8c-4,11.6-14.9,18.5-29.6,18.5ZM389.1,37c-8.8,0-14.2,5.4-15.6,15.6l-.2,1.2h30.3s0-1.1,0-1.1c-.7-9.7-6.2-15.7-14.5-15.7Z"/>
          <rect x="6.8" y="2" width="51.4" height="13.3"/>
        </g>
        <g>
          <path d="M418.6,5.7h4.6c1.9,0,3.4,1,3.4,2.8s-.6,2-1.7,2.3h0c.8.3,1.3.9,1.4,1.8.2,1.3,0,2.5.4,2.6h0c0,.1-2.3.1-2.3.1-.3-.1-.2-1.3-.4-2.3-.1-.9-.6-1.4-1.6-1.4h-1.5v3.6h-2.4V5.7ZM422.8,10c.9,0,1.4-.4,1.4-1.2s-.5-1.2-1.4-1.2h-1.9v2.4h1.8Z"/>
          <path d="M422.5,21c-5.8,0-10.5-4.7-10.5-10.5S416.7,0,422.5,0s10.5,4.7,10.5,10.5-4.7,10.5-10.5,10.5ZM422.5,2c-4.7,0-8.5,3.8-8.5,8.5s3.8,8.5,8.5,8.5,8.5-3.8,8.5-8.5-3.8-8.5-8.5-8.5Z"/>
        </g>
      </g>
    </g>
  </g>
</svg>